<?xml version="1.0" encoding="utf-8"?>
<!-- Generator: Adobe Illustrator 19.2.1, SVG Export Plug-In . SVG Version: 6.00 Build 0)  -->
<svg version="1.1" id="Layer_1" xmlns="http://www.w3.org/2000/svg" xmlns:xlink="http://www.w3.org/1999/xlink" x="0px" y="0px"
	 viewBox="0 0 64 64" style="enable-background:new 0 0 64 64;" xml:space="preserve">
<style type="text/css">
	.st0{fill:#04B1FF;}
</style>
<g>
	<path class="st0" d="M23.5,55.6C13.1,51.8,6.5,41.7,7,30.9l-5.6-8.4c-0.2,0.7-0.4,1.3-0.6,2c-4,17.3,6.5,34.5,23.7,38.7
		c1.5,0.4,3,0.6,4.5,0.8L23.5,55.6z"/>
	<path class="st0" d="M16.2,12.7C22,8,29.9,5.9,37.9,7.8c3.8,0.9,7.2,2.6,10,5h9.6C53.2,7.1,47,2.8,39.5,1C26.8-2.1,14,3,6.5,12.8
		h9.7V12.7z"/>
	<path class="st0" d="M57,30.9c0.1,2.3-0.1,4.7-0.7,7c-2,8.5-8.2,14.9-15.8,17.6l-5.6,8.4c13.3-1.2,24.9-10.7,28.2-24.4
		c1.4-5.8,1.1-11.7-0.6-17L57,30.9z"/>
</g>
<g>
	<path class="st0" d="M21.5,21c3.6-3.4,8.9-5.1,14.1-3.8c2.7,0.7,5.1,2,6.9,3.8h5.6c-2.6-3.8-6.6-6.8-11.5-7.9
		c-8.1-1.9-16.2,1.5-20.7,7.9H21.5z"/>
	<path class="st0" d="M28.6,46.9c-0.1,0-0.1,0-0.2,0C20.5,45,15.6,37.4,17,29.5l-3.1-4.7c-0.3,0.9-0.6,1.7-0.9,2.6
		c-2.5,10.5,3.9,21,14.4,23.6c1.4,0.3,2.9,0.5,4.3,0.5L28.6,46.9z"/>
	<path class="st0" d="M47,29.4c0.3,2,0.3,4.1-0.2,6.2c-1.4,5.8-6,10-11.4,11.3l-3.1,4.6C41,51.4,48.9,45.4,51,36.6
		c1-4.1,0.6-8.2-0.9-11.8L47,29.4z"/>
</g>
<circle class="st0" cx="32" cy="32" r="8"/>
</svg>
